<svg viewBox="-18 0 512 512" xmlns="http://www.w3.org/2000/svg"><path d="m316.382812 21.890625v347.808594c0 12.09375-9.800781 21.890625-21.890624 21.890625h-272.601563c-12.09375 0-21.890625-9.796875-21.890625-21.890625v-347.808594c0-12.09375 9.796875-21.890625 21.890625-21.890625h272.601563c12.089843 0 21.890624 9.796875 21.890624 21.890625zm0 0" fill="#ebe1dc"/><path d="m316.382812 21.890625v330.089844h-250.714843c-12.089844 0-21.886719-9.800781-21.886719-21.890625v-330.089844h250.710938c12.089843 0 21.890624 9.796875 21.890624 21.890625zm0 0" fill="#fff5f5"/><g fill="#40c1fa"><path d="m87.832031 73.84375c0 10.890625-8.828125 19.71875-19.71875 19.71875s-19.722656-8.828125-19.722656-19.71875 8.832031-19.722656 19.722656-19.722656 19.71875 8.832031 19.71875 19.722656zm0 0"/><path d="m87.832031 155.144531c0 10.890625-8.828125 19.71875-19.71875 19.71875s-19.722656-8.828125-19.722656-19.71875 8.832031-19.722656 19.722656-19.722656 19.71875 8.832031 19.71875 19.722656zm0 0"/><path d="m87.832031 236.445312c0 10.890626-8.828125 19.722657-19.71875 19.722657s-19.722656-8.832031-19.722656-19.722657c0-10.890624 8.832031-19.71875 19.722656-19.71875s19.71875 8.828126 19.71875 19.71875zm0 0"/><path d="m87.832031 317.746094c0 10.890625-8.828125 19.722656-19.71875 19.722656s-19.722656-8.832031-19.722656-19.722656 8.832031-19.71875 19.722656-19.71875 19.71875 8.828125 19.71875 19.71875zm0 0"/><path d="m125.632812 81.660156h93.816407c4.316406 0 7.816406-3.5 7.816406-7.816406 0-4.320312-3.5-7.820312-7.816406-7.820312h-93.816407c-4.316406 0-7.816406 3.5-7.816406 7.820312 0 4.316406 3.5 7.816406 7.816406 7.816406zm0 0"/><path d="m250.71875 81.660156h17.515625c4.320313 0 7.820313-3.5 7.820313-7.816406 0-4.320312-3.5-7.820312-7.820313-7.820312h-17.515625c-4.316406 0-7.816406 3.5-7.816406 7.820312 0 4.316406 3.5 7.816406 7.816406 7.816406zm0 0"/><path d="m268.234375 147.328125h-142.601563c-4.316406 0-7.816406 3.496094-7.816406 7.816406 0 4.316407 3.5 7.816407 7.816406 7.816407h142.601563c4.320313 0 7.820313-3.5 7.820313-7.816407 0-4.320312-3.5-7.816406-7.820313-7.816406zm0 0"/><path d="m268.234375 228.628906h-93.8125c-4.316406 0-7.816406 3.5-7.816406 7.816406 0 4.320313 3.5 7.816407 7.816406 7.816407h93.8125c4.320313 0 7.820313-3.496094 7.820313-7.816407 0-4.316406-3.5-7.816406-7.820313-7.816406zm0 0"/><path d="m125.632812 244.261719h17.519532c4.316406 0 7.816406-3.496094 7.816406-7.816407 0-4.316406-3.5-7.816406-7.816406-7.816406h-17.519532c-4.316406 0-7.816406 3.5-7.816406 7.816406 0 4.320313 3.5 7.816407 7.816406 7.816407zm0 0"/><path d="m268.234375 309.929688h-142.601563c-4.316406 0-7.816406 3.5-7.816406 7.816406 0 4.320312 3.5 7.820312 7.816406 7.820312h142.601563c4.320313 0 7.820313-3.5 7.820313-7.820312 0-4.316406-3.5-7.816406-7.820313-7.816406zm0 0"/></g><path d="m476.546875 397.859375c0 54.445313-38.117187 99.984375-89.121094 111.390625-8.046875 1.800781-16.417969 2.75-25.015625 2.75-63.042968 0-114.140625-51.109375-114.140625-114.140625 0-63.042969 51.097657-114.140625 114.140625-114.140625 8.597656 0 16.96875.949219 25.015625 2.753906 51.003907 11.402344 89.121094 56.945313 89.121094 111.386719zm0 0" fill="#07a9f0"/><path d="m476.546875 397.859375c0 54.445313-38.117187 99.984375-89.121094 111.390625-51.003906-11.40625-89.132812-56.945312-89.132812-111.390625 0-54.453125 38.128906-99.984375 89.132812-111.386719 51.003907 11.402344 89.121094 56.945313 89.121094 111.386719zm0 0" fill="#40c1fa"/><path d="m422.316406 381.855469h-38.058594c-3.796874 0-6.875-3.078125-6.875-6.875v-38.46875c0-8.597657-7.035156-15.632813-15.632812-15.632813-8.601562 0-15.636719 7.035156-15.636719 15.632813v38.46875c0 3.796875-3.078125 6.875-6.875 6.875h-38.054687c-7.980469 0-14.984375 5.808593-15.933594 13.730469-1.136719 9.441406 6.292969 17.542968 15.519531 17.542968h38.46875c3.796875 0 6.875 3.078125 6.875 6.871094v38.472656c0 8.597656 7.035157 15.632813 15.636719 15.632813 8.597656 0 15.632812-7.035157 15.632812-15.632813v-38.472656c0-3.792969 3.078126-6.871094 6.875-6.871094h38.46875c9.226563 0 16.65625-8.101562 15.523438-17.542968-.953125-7.921876-7.957031-13.730469-15.933594-13.730469zm0 0" fill="#fff5f5"/></svg>