<svg id="Layer_1" enable-background="new 0 0 512 512" height="512" viewBox="0 0 512 512" width="512" xmlns="http://www.w3.org/2000/svg"><g clip-rule="evenodd" fill-rule="evenodd"><path d="m256-.002c-141.16 0-256.002 114.843-256.002 256.002 0 141.16 114.843 255.998 256.002 255.998s256.002-114.838 256.002-255.998c0-141.159-114.843-256.002-256.002-256.002z" fill="#f44336"/><path d="m368.701 205.442c-4.679-4.679-12.283-4.679-16.972 0-4.679 4.689-4.679 12.288 0 16.967l21.59 21.59h-134.749c-6.632 0-12.001 5.373-12.001 12 0 6.632 5.368 12.001 12.001 12.001h134.749l-21.59 21.59c-4.679 4.679-4.679 12.279 0 16.968 2.354 2.344 5.42 3.514 8.491 3.514s6.142-1.17 8.482-3.514l42.067-42.067c2.255-2.259 3.524-5.311 3.524-8.491 0-3.179-1.269-6.241-3.524-8.491zm-30.081 132.631c4.722 4.656 4.76 12.255.099 16.967-26.666 26.968-62.228 41.817-100.149 41.817-77.667 0-140.862-63.186-140.862-140.858s63.195-140.862 140.862-140.862c37.921 0 73.483 14.854 100.149 41.822 4.66 4.708 4.623 12.311-.099 16.972-4.712 4.661-12.307 4.618-16.967-.099-22.123-22.373-51.633-34.694-83.082-34.694-64.441 0-116.862 52.421-116.862 116.862s52.421 116.862 116.862 116.862c31.449 0 60.959-12.321 83.082-34.69 4.66-4.722 12.255-4.76 16.967-.099z" fill="#fff"/></g></svg>